<svg xmlns="http://www.w3.org/2000/svg" xmlns:xlink="http://www.w3.org/1999/xlink" xmlns:sketch="http://www.bohemiancoding.com/sketch/ns" version="1.1">
	<symbol id="facebook" viewBox="-1 -1 28 36">
	<g>
		<path d="M13,34 C13,34 25.9971964,24.4769584 26,13 C26,5.82029825 20.1797017,0 13,0 C5.82029825,0 0,5.82029825 0,13 C0.165217837,25.3733136 13,34 13,34 Z"/>
		<path stroke="none" fill="#FFFFFF" d="M20,7.875 C20,7.39648438 19.6035156,7 19.125,7 L6.875,7 C6.39648437,7 6,7.39648438 6,7.875 L6,20.125 C6,20.6035156 6.39648437,21 6.875,21 L13.4853516,21 L13.4853516,15.5585938 L11.7353516,15.5585938 L11.7353516,13.5419922 L13.4853516,13.5419922 L13.4853516,11.7988281 C13.4853516,10.2060547 14.4560547,9.13964844 16.3769531,9.13964844 C17.2246094,9.13964844 17.8125,9.23535156 17.8125,9.23535156 L17.8125,11.0537109 L16.5,11.0537109 C15.9189453,11.0537109 15.625,11.3818359 15.625,11.9560547 L15.625,13.5419922 L17.6689453,13.5419922 L17.375,15.5585938 L15.625,15.5585938 L15.625,21 L19.125,21 C19.6035156,21 20,20.6035156 20,20.125 L20,7.875 Z"/>
	</g>
	</symbol>

	<symbol id="picasa" viewBox="-1 -1 28 36">
	<g>
		<path d="M13,34 C13,34 25.9971964,24.4769584 26,13 C26,5.82029825 20.1797017,0 13,0 C5.82029825,0 0,5.82029825 0,13 C0.165217837,25.3733136 13,34 13,34 Z"/>
		<path stroke="none" fill="#FFFFFF" d="M15.8419517,7.12197333 C14.9479504,6.71687228 13.9982249,6.50938737 13.0171394,6.50938737 C12.2005732,6.50938737 11.397516,6.66632491 10.6250951,6.95516702 C10.8060181,7.11908491 15.6079578,11.4678435 15.8419517,11.6799018 L15.8419517,7.12197333"/>
		<path stroke="none" fill="#FFFFFF" d="M9.49106921,19.1830568 L9.49106921,13.3056014 C9.26214121,13.513327 6.73934982,15.8011972 6.66070859,15.8724449 C7.20974982,17.2463705 8.21206367,18.411367 9.49106921,19.1830568"/>
		<path stroke="none" fill="#FFFFFF" d="M6.16715044,13.3450765 C6.16715044,13.9319074 6.25592336,14.5288477 6.41610059,15.1207333 C6.60160705,14.9522421 12.3694347,9.72323719 12.4881203,9.61540281 C12.3723295,9.51045684 9.97377198,7.33836421 9.89585444,7.26735719 C7.59571905,8.44535158 6.16715044,10.7676421 6.16715044,13.3450765"/>
		<path stroke="none" fill="#FFFFFF" d="M10.2109018,16.3155768 L10.2109018,19.5768449 C10.9070938,19.8887944 11.6353695,20.0823186 12.3848735,20.1518814 L13.642892,20.1518814 C16.0088834,19.93188 18.1213412,18.4761158 19.1709363,16.3155768 L10.2109018,16.3155768"/>
		<path stroke="none" fill="#FFFFFF" d="M16.5639554,7.51431719 L16.5639554,15.5953972 L19.4792292,15.5953972 C19.7344514,14.8672744 19.8680932,14.1105081 19.8680932,13.3450765 C19.8680932,10.9695909 18.6023554,8.75200561 16.5639554,7.51431719"/>
	</g>
	</symbol>

	<symbol id="flickr" viewBox="-1 -1 28 36">
	<g>
		<path d="M13,34 C13,34 25.9971964,24.4769584 26,13 C26,5.82029825 20.1797017,0 13,0 C5.82029825,0 0,5.82029825 0,13 C0.165217837,25.3733136 13,34 13,34 Z"/>
		<path stroke="none" fill="#FFFFFF" d="M12.0060193,13.5 C12.0060193,11.8496802 10.6666639,10.5 9.02262091,10.5 C7.3849256,10.5 6.04557013,11.8496802 6.04557013,13.5 C6.04557013,15.1503198 7.3849256,16.5 9.02262091,16.5 C10.6666639,16.5 12.0060193,15.1503198 12.0060193,13.5 L12.0060193,13.5 Z"/>
		<path stroke="none" fill="#FFFFFF" d="M19.0455701,13.5 C19.0455701,11.8496802 17.7062147,10.5 16.0685193,10.5 C14.4244764,10.5 13.0851209,11.8496802 13.0851209,13.5 C13.0851209,15.1503198 14.4244764,16.5 16.0685193,16.5 C17.7062147,16.5 19.0455701,15.1503198 19.0455701,13.5 L19.0455701,13.5 Z"/>
	</g>
	</symbol>

	<symbol id="foursquare" viewBox="-1 -1 28 36">
	<g>
		<path d="M13,34 C13,34 25.9971964,24.4769584 26,13 C26,5.82029825 20.1797017,0 13,0 C5.82029825,0 0,5.82029825 0,13 C0.165217837,25.3733136 13,34 13,34 Z"/>
		<path stroke="none" fill="#FFFFFF" d="M9.89822409,9.10358508 C9.80386036,9.34804784 9.81655256,9.61679132 9.80882687,9.87394627 C9.83200393,13.3162909 9.7933755,16.7586356 9.82924476,20.1998765 C10.7480495,19.130421 11.6431253,18.0416512 12.5326828,16.9479148 C12.7462428,16.7045558 12.9620102,16.380077 13.3234619,16.3745586 C14.2058455,16.3122013 15.0937475,16.4164981 15.9761311,16.3425522 C16.1703769,16.3408967 16.3596562,16.2366 16.4054585,16.0368358 C16.5853566,15.4347842 16.6764093,14.8095555 16.7967092,14.1942599 C16.850789,13.9404159 16.8447189,13.5292991 16.4959593,13.5182624 C15.4485772,13.4172767 14.3885028,13.5723422 13.3427761,13.4559051 C12.7887341,13.3587822 12.7611423,12.6772664 12.8301217,12.2363505 C12.8505395,11.8820726 13.2037137,11.677342 13.529848,11.6900342 C14.5970963,11.6591314 15.6654482,11.7054855 16.7338001,11.6845158 C16.9468083,11.6674089 17.2326586,11.6729273 17.3358517,11.4411567 C17.5129906,11.0339027 17.5427897,10.5819501 17.6410163,10.1526228 C17.6973034,9.79668942 17.8181552,9.43358221 17.7480722,9.07102684 C17.5874883,8.79179849 17.2199664,8.83042692 16.9446009,8.80890537 C14.8492847,8.81828656 12.7528648,8.81332005 10.6575486,8.81111271 C10.3893569,8.82546041 10.0334236,8.81828656 9.89822409,9.10358508 L9.89822409,9.10358508 Z M9.104134,7.04910462 C9.26692523,7.01765005 9.43137196,7.00882069 9.59637053,7.00385418 C12.4697736,7.00606152 15.3431767,7.01323537 18.216028,7.00054317 C18.6922613,6.99392115 19.2612029,7.04193077 19.5520197,7.47677649 C19.9234045,8.04351069 19.7468174,8.75703291 19.6276211,9.3745359 C19.1210369,11.8219226 18.6635659,14.2792424 18.1586372,16.7266291 C18.0637216,17.1189836 17.9715652,17.5455518 17.6724709,17.838576 C17.4539443,18.058758 17.1388467,18.1448442 16.8369932,18.1608474 C15.9474357,18.2066497 15.0567745,18.1310484 14.1677689,18.1768506 C13.9420685,18.1641585 13.7825883,18.3330199 13.646837,18.4875336 C12.4145902,19.9471363 11.1315746,21.363144 9.89712042,22.8205394 C9.72825901,23.0092668 9.55994944,23.2101346 9.33369723,23.3337456 C8.95734598,23.5208175 8.44193241,23.4336277 8.18753663,23.0859718 C8.0264009,22.8674453 8.01701971,22.5832505 8.00487935,22.3227845 C8.01150137,18.1034566 8.00708669,13.8841288 8.00819036,9.66480094 C8.01481238,9.14497268 7.96569909,8.61852241 8.05068163,8.102557 C8.14338985,7.57996957 8.5771319,7.13684633 9.104134,7.04910462 L9.104134,7.04910462 Z"/>
	</g>
	</symbol>

	<symbol id="google" viewBox="-1 -1 28 36">
	<g>
		<path d="M13,34 C13,34 25.9971964,24.4769584 26,13 C26,5.82029825 20.1797017,0 13,0 C5.82029825,0 0,5.82029825 0,13 C0.165217837,25.3733136 13,34 13,34 Z"/>
		<path stroke="none" fill="#FFFFFF" d="M10.0586595,13.089307 L10.0586595,15.1250149 L13.494796,15.1250149 C13.356328,15.9986328 12.4561339,17.6865935 10.0586595,17.6865935 C7.9900846,17.6865935 6.30229669,16.0071326 6.30229669,13.9375 C6.30229669,11.8678674 7.9900846,10.1884065 10.0586595,10.1884065 C11.2357896,10.1884065 12.0233834,10.6803525 12.4734805,11.1044489 L14.1179781,9.55218719 C13.0620455,8.58529491 11.6944839,8 10.0586595,8 C6.70910349,8 4,10.6549275 4,13.9375 C4,17.2200725 6.70910349,19.875 10.0586595,19.875 C13.5553568,19.875 15.875,17.4660454 15.875,14.0731989 C15.875,13.6830272 15.8317097,13.3861298 15.7797462,13.089307 L10.0586595,13.089307"/>
		<path stroke="none" fill="#FFFFFF" d="M22.7978923,12.6181039 L21.1486109,12.6181039 L21.1486109,10.96875 L19.499257,10.96875 L19.499257,12.6181039 L17.8499756,12.6181039 L17.8499756,14.2673853 L19.499257,14.2673853 L19.499257,15.9166667 L21.1486109,15.9166667 L21.1486109,14.2673853 L22.7978923,14.2673853 L22.7978923,12.6181039"/>
	</g>
	</symbol>

	<symbol id="instagram" viewBox="-1 -1 28 36">
	<g>
		<path d="M13,34 C13,34 25.9971964,24.4769584 26,13 C26,5.82029825 20.1797017,0 13,0 C5.82029825,0 0,5.82029825 0,13 C0.165217837,25.3733136 13,34 13,34 Z"/>
		<path stroke="none" fill="#FFFFFF" d="M17.9560547,7 L8.04394531,7 C6.91601562,7 6,7.91601562 6,9.04394531 L6,18.9560547 C6,20.0839844 6.91601562,21 8.04394531,21 L17.9560547,21 C19.0839844,21 20,20.0839844 20,18.9560547 L20,9.04394531 C20,7.91601562 19.0839844,7 17.9560547,7 L17.9560547,7 Z M13,11.375 C14.4492188,11.375 15.625,12.5507812 15.625,14 C15.625,15.4492188 14.4492188,16.625 13,16.625 C11.5507812,16.625 10.375,15.4492188 10.375,14 C10.375,12.5507812 11.5507812,11.375 13,11.375 L13,11.375 Z M18.5439453,19.25 C18.5439453,19.4140625 18.4140625,19.5439453 18.25,19.5439453 L7.75,19.5439453 C7.5859375,19.5439453 7.45605469,19.4140625 7.45605469,19.25 L7.45605469,13.125 L9.0078125,13.125 C8.94628906,13.4052734 8.91894531,13.6992188 8.91894531,14 C8.91894531,16.2558594 10.7441406,18.0810547 13,18.0810547 C15.2558594,18.0810547 17.0810547,16.2558594 17.0810547,14 C17.0810547,13.6992188 17.0537109,13.4052734 16.9921875,13.125 L18.5439453,13.125 L18.5439453,19.25 Z M18.5439453,10.5 C18.5439453,10.6640625 18.4140625,10.7939453 18.25,10.7939453 L16.5,10.7939453 C16.3359375,10.7939453 16.2060547,10.6640625 16.2060547,10.5 L16.2060547,8.75 C16.2060547,8.5859375 16.3359375,8.45605469 16.5,8.45605469 L18.25,8.45605469 C18.4140625,8.45605469 18.5439453,8.5859375 18.5439453,8.75 L18.5439453,10.5 Z"/>
	</g>
	</symbol>

	<symbol id="periscope" viewBox="-1 -1 28 36">
	<g>
		<path d="M13,34 C13,34 25.9971964,24.4769584 26,13 C26,5.82029825 20.1797017,0 13,0 C5.82029825,0 0,5.82029825 0,13 C0.165217837,25.3733136 13,34 13,34 Z"/>
		<path stroke="none" fill="#FFFFFF" d="M20,12.5667308 C20,16.1934568 15.7864138,24.3076923 12.9552346,24.3076923 C10.7138321,24.3076923 6,16.1934568 6,12.5667308 C6,8.94000486 9.38088636,6 12.9552346,6 C16.5283306,6 20,8.94000486 20,12.5667308 Z M10.8546109,8.30846652 C11.4035001,8.54010968 11.7897342,9.08329277 11.7897342,9.71614417 C11.7897342,10.5593712 11.1063528,11.2428048 10.26319,11.2428048 C9.48095104,11.2428048 8.83550332,10.6536379 8.7475661,9.89433121 C8.37167758,10.4806241 8.15384615,11.1761283 8.15384615,11.9227895 C8.15384615,14.004704 9.84074648,15.6923077 11.9236517,15.6923077 C14.0048326,15.6923077 15.6923077,14.004704 15.6923077,11.9227895 C15.6917329,9.8408751 14.0042579,8.15384615 11.9230769,8.15384615 C11.5512117,8.15384615 11.1931405,8.20845186 10.8546109,8.30846652 Z"/>
	</g>
	</symbol>

	<symbol id="twitter" viewBox="-1 -1 28 36">
	<g>
		<path d="M13,34 C13,34 25.9971964,24.4769584 26,13 C26,5.82029825 20.1797017,0 13,0 C5.82029825,0 0,5.82029825 0,13 C0.165217837,25.3733136 13,34 13,34 Z"/>
		<path stroke="none" fill="#FFFFFF" d="M21,9.50878906 C20.4804688,9.74121094 19.9335938,9.8984375 19.3457031,9.96679688 C19.9472656,9.61132812 20.3984375,9.04394531 20.6103516,8.37402344 C20.0634766,8.70214844 19.4414062,8.94140625 18.7988281,9.07128906 C18.2587891,8.52441406 17.5136719,8.16894531 16.6865234,8.16894531 C15.1005859,8.16894531 13.8222656,9.44726562 13.8222656,11.0332031 C13.8222656,11.2587891 13.8359375,11.4912109 13.8837891,11.6962891 C11.5048828,11.5664062 9.39941406,10.4863281 7.97070312,8.75 C7.73144531,9.17382812 7.58105469,9.61132812 7.58105469,10.1445312 C7.58105469,11.1289062 8.08691406,12.0039062 8.86621094,12.5234375 C8.39453125,12.5097656 7.95703125,12.3798828 7.56738281,12.1679688 L7.56738281,12.2021484 C7.56738281,13.5966797 8.55859375,14.7587891 9.87109375,15.0185547 C9.625,15.0869141 9.36523438,15.1210938 9.10546875,15.1210938 C8.92773438,15.1210938 8.75,15.1005859 8.57226562,15.0664062 C8.92773438,16.2011719 10.0009766,17.0488281 11.2451172,17.0625 C10.2744141,17.8417969 9.0234375,18.4228516 7.68359375,18.4228516 C7.45117188,18.4228516 7.22558594,18.4091797 7,18.375 C8.26464844,19.1884766 9.7890625,19.5439453 11.4091797,19.5439453 C16.6865234,19.5439453 19.5712891,15.1689453 19.5712891,11.375 L19.5712891,10.9990234 C20.125,10.5957031 20.6103516,10.0966797 21,9.50878906 L21,9.50878906 Z"/>
	</g>
	</symbol>

	<symbol id="vine" viewBox="-1 -1 28 36">
	<g>
		<path d="M13,34 C13,34 25.9971964,24.4769584 26,13 C26,5.82029825 20.1797017,0 13,0 C5.82029825,0 0,5.82029825 0,13 C0.165217837,25.3733136 13,34 13,34 Z"/>
		<path stroke="none" fill="#FFFFFF" d="M6,9.54016088 C6,9.54016088 7.53799286,19.8898839 11.9921091,22.6135876 C12.6007558,22.9662595 13.2908933,22.9494935 13.7542991,22.5496426 C15.6127965,20.9473149 17.5371884,18.2487603 18.0816952,16.9991046 C19.1052042,17.0965816 19.8103532,16.8460656 19.8103532,16.8460656 L19.8039197,14.8707907 C19.8039197,14.8707907 18.3029681,14.899059 18.0169704,14.903348 C15.8397231,14.9357104 14.3372119,12.2938875 15.2224984,10.061858 C15.835824,8.51567711 16.9147,9.63003471 17.1069247,10.1105966 C17.2991495,10.5909635 17.2570394,11.8788302 16.9770853,12.8235777 C17.318255,13.6197703 19.1703189,14.0420408 19.5925894,13.3760777 C20.112727,11.9139219 20.3400434,9.28204165 18.9917409,7.91736299 C18.1021654,7.01706498 15.8693561,6.56009258 14.2352509,7.58535616 C12.6007558,8.6108147 12.6327282,10.7898166 12.761008,11.8792201 C12.8892878,12.9688186 13.2417648,15.2757104 15.4205718,16.5573386 C15.6127965,16.7817307 13.0321892,20.1335765 12.8892878,19.9861912 C9.68502231,16.6858133 8.81981603,9.57213335 8.81981603,9.57213335 L6,9.54016088"/>
	</g>
	</symbol>

	<symbol id="vk" viewBox="-1 -1 28 36">
	<g>
		<path d="M13,34 C13,34 25.9971964,24.4769584 26,13 C26,5.82029825 20.1797017,0 13,0 C5.82029825,0 0,5.82029825 0,13 C0.165217837,25.3733136 13,34 13,34 Z"/>
		<path stroke="none" fill="#FFFFFF" d="M12.806885,19.225846 L13.8827638,19.225846 C13.8827638,19.225846 14.2076698,19.1900341 14.3737991,19.0112914 C14.526491,18.8470003 14.5216104,18.5387009 14.5216104,18.5387009 C14.5216104,18.5387009 14.500567,17.0950685 15.1704717,16.8824788 C15.8311224,16.6729316 16.6792627,18.2776859 17.5781736,18.8947918 C18.2579662,19.3616144 18.7745453,19.2594395 18.7745453,19.2594395 L21.1783808,19.225846 C21.1783808,19.225846 22.4357911,19.1482641 21.8395385,18.1596016 C21.7907329,18.0788505 21.4921946,17.4282778 20.0521751,16.0916375 C18.5447785,14.6926275 18.7468465,14.9189715 20.5624791,12.4990365 C21.6682118,11.0252967 22.1101879,10.1256253 21.9720743,9.74031436 C21.8404893,9.37319464 21.0271467,9.47017205 21.0271467,9.47017205 L18.3206529,9.48690541 C18.3206529,9.48690541 18.1198527,9.45958694 17.971154,9.54857797 C17.8256878,9.63560411 17.7323233,9.83893975 17.7323233,9.83893975 C17.7323233,9.83893975 17.3037846,10.97928 16.7326954,11.9492443 C15.5275134,13.9956578 15.045542,14.1039809 14.8485447,13.976706 C14.3902155,13.6805129 14.5047503,12.787053 14.5047503,12.1521362 C14.5047503,10.1688531 14.8055704,9.34194637 13.918956,9.12789884 C13.6247912,9.05690884 13.4080816,9.00994135 12.6556509,9.00227189 C11.68987,8.99244738 10.872661,9.00525094 10.4098316,9.23197525 C10.1019125,9.38276562 9.86434949,9.71870044 10.0091184,9.73803254 C10.1880512,9.76186489 10.5930745,9.84736981 10.8078193,10.1395697 C11.0852507,10.517021 11.075553,11.3643374 11.075553,11.3643374 C11.075553,11.3643374 11.2349636,13.6989576 10.7033626,13.9888757 C10.338588,14.1877745 9.83810855,13.781737 8.76362419,11.925095 C8.21319815,10.9740825 7.79746296,9.9227333 7.79746296,9.9227333 C7.79746296,9.9227333 7.71740906,9.72630651 7.57441492,9.62115257 C7.40099649,9.49375087 7.15867973,9.45337531 7.15867973,9.45337531 L4.58668668,9.47017205 C4.58668668,9.47017205 4.20067855,9.48094732 4.05882532,9.64885135 C3.93262792,9.79831065 4.04874727,10.1070538 4.04874727,10.1070538 C4.04874727,10.1070538 6.06220115,14.8178741 8.34224783,17.1918558 C10.4330935,19.3687134 12.806885,19.225846 12.806885,19.225846"/>
	</g>
	</symbol>

	<symbol id="waze" viewBox="-1 -1 28 36">
	<g>
		<path d="M13,34 C13,34 25.9971964,24.4769584 26,13 C26,5.82029825 20.1797017,0 13,0 C5.82029825,0 0,5.82029825 0,13 C0.165217837,25.3733136 13,34 13,34 Z"/>
		<path stroke="none" fill="#FFFFFF" d="M12.9327118,11.5525091 C12.9327118,12.0427948 12.5277118,12.4403013 12.0280529,12.4403013 C11.5285,12.4403013 11.1233941,12.0427948 11.1233941,11.5525091 C11.1233941,11.0622234 11.5285,10.6649247 12.0280529,10.6649247 C12.5277118,10.6649247 12.9327118,11.0622234 12.9327118,11.5525091 Z M17.1591541,11.5525091 C17.1591541,12.0427948 16.7541541,12.4403013 16.2544953,12.4403013 C15.7549424,12.4403013 15.3498365,12.0427948 15.3498365,11.5525091 C15.3498365,11.0622234 15.7549424,10.6649247 16.2544953,10.6649247 C16.7541541,10.6649247 17.1591541,11.0622234 17.1591541,11.5525091 Z M14.1088953,16.3124779 C12.5760365,16.3124779 11.1951188,15.3264 10.9418482,14.0354909 C10.8927188,13.7848935 11.0600129,13.5425039 11.3154012,13.4942961 C11.5708953,13.4459844 11.8178129,13.6102442 11.8669424,13.8608416 C12.0158129,14.6196987 12.94186,15.4188675 14.1762365,15.3871792 C15.4619659,15.3540364 16.3113541,14.5995429 16.4859541,13.8715429 C16.5455659,13.6231273 16.7993659,13.4692571 17.0523188,13.527439 C17.3055894,13.5859325 17.4626129,13.8347636 17.4030012,14.0832831 C17.2605894,14.6774649 16.8704129,15.2282182 16.3044718,15.6340364 C15.7150247,16.0567896 14.9876129,16.2909714 14.2010129,16.3112312 C14.1703071,16.3120623 14.1394953,16.3124779 14.1088953,16.3124779 Z M16.0440647,20.6680519 C15.7035471,20.6680519 15.4275118,20.3972987 15.4275118,20.0631688 C15.4275118,19.729039 15.7035471,19.4582857 16.0440647,19.4582857 C16.3844765,19.4582857 16.6605118,19.729039 16.6605118,20.0631688 C16.6605118,20.3972987 16.3844765,20.6680519 16.0440647,20.6680519 Z M9.56025294,20.6680519 C9.21984118,20.6680519 8.94380588,20.3972987 8.94380588,20.0631688 C8.94380588,19.729039 9.21984118,19.4582857 9.56025294,19.4582857 C9.90077059,19.4582857 10.1768059,19.729039 10.1768059,20.0631688 C10.1768059,20.3972987 9.90077059,20.6680519 9.56025294,20.6680519 M21.8752176,12.0343896 C21.7012529,11.0255584 21.2928647,10.08 20.6613824,9.2238961 C19.9481588,8.25693506 18.9724529,7.44955844 17.8398294,6.88914286 C16.6950294,6.3227013 15.4172412,6.02316883 14.1445353,6.02316883 C13.7854882,6.02316883 13.4235824,6.04706494 13.0686647,6.09402597 C11.5827118,6.29101299 10.1216412,6.89755844 8.9545,7.80197403 C7.63944118,8.82098701 6.79079412,10.1311169 6.50046471,11.590961 C6.41406471,12.025039 6.37721765,12.505039 6.34153529,12.9692468 C6.28562941,13.6958961 6.22781765,14.4472727 5.99233529,14.9382857 C5.83139412,15.2738701 5.59125294,15.4973506 4.94208824,15.4973506 C4.58484118,15.4973506 4.25840588,15.6955844 4.09894706,16.0092468 C3.93959412,16.323013 3.97474706,16.6981818 4.18979412,16.9780779 C5.16782941,18.2513247 6.44413529,19.0223377 7.78788824,19.486961 C7.72668824,19.6683636 7.69227647,19.8616104 7.69227647,20.0631688 C7.69227647,21.0755325 8.52864118,21.8961039 9.56025294,21.8961039 C10.5664529,21.8961039 11.3845,21.115013 11.4245235,20.1373506 C11.8624529,20.1606234 13.9483353,20.1663377 14.1809588,20.16 C14.2326294,21.1270649 15.0457,21.8961039 16.0440647,21.8961039 C17.0756765,21.8961039 17.9120412,21.0755325 17.9120412,20.0631688 C17.9120412,19.8324156 17.8667235,19.6124675 17.7874176,19.409039 C18.5199118,19.0594286 19.2114294,18.5876364 19.8146412,18.0195325 C20.6559824,17.2272208 21.2734882,16.2925714 21.6006647,15.3165714 C21.9689235,14.2178701 22.0613588,13.1136623 21.8752176,12.0343896"/>
	</g>
	</symbol>

	<symbol id="sinaweibo" viewBox="-1 -1 28 36">
	<g>
		<path d="M13,34 C13,34 25.9971964,24.4769584 26,13 C26,5.82029825 20.1797017,0 13,0 C5.82029825,0 0,5.82029825 0,13 C0.165217837,25.3733136 13,34 13,34 Z"/>
		<path stroke="none" fill="#FFFFFF" d="M11.6064746,20.4697912 C10.5240236,20.4469884 9.4653727,20.2947749 8.43103496,19.9743341 C7.54738779,19.7005383 6.71823685,19.31458 5.98845572,18.7329142 C5.34168591,18.2174478 4.84044251,17.5925476 4.59987647,16.7781439 C4.43301987,16.213239 4.43459157,15.6468074 4.55728025,15.0741717 C4.71974251,14.3159954 5.0401444,13.6279165 5.44846515,12.9780046 C5.80629911,12.4084548 6.22286326,11.8855174 6.67673119,11.391522 C7.41863685,10.5840696 8.24217459,9.87789791 9.17829723,9.31097912 C9.73596138,8.97329002 10.3203444,8.6965058 10.9590312,8.55442691 C11.2652236,8.4863109 11.5748161,8.4557123 11.8879689,8.50726218 C12.481718,8.60500232 12.8434652,8.99187007 12.9127482,9.59981439 C12.9613425,10.0263434 12.879518,10.4356566 12.7624746,10.8410719 C12.7558991,10.8639397 12.748201,10.88658 12.7432293,10.9098051 C12.7139765,11.0460371 12.7896746,11.1430626 12.9248085,11.1186032 C13.0507368,11.0958005 13.1749652,11.0532807 13.294318,11.0050766 C13.7814482,10.8082645 14.278618,10.6470209 14.7966048,10.5583759 C15.2638482,10.4784362 15.7329199,10.4458237 16.1975652,10.5697123 C16.7036199,10.704645 17.0580538,11.0006265 17.1509123,11.5491926 C17.2011104,11.8457587 17.1584821,12.1371276 17.0744765,12.4225197 C17.0284161,12.5789884 16.9684991,12.7313643 16.9253897,12.88858 C16.8879576,13.0250719 16.9261274,13.1064733 17.055584,13.1619536 C17.1876067,13.2185058 17.3268142,13.2577123 17.4616595,13.3078654 C17.8909897,13.4675824 18.2864482,13.6889513 18.617467,14.0106265 C19.212467,14.5887842 19.4103085,15.2937216 19.2363953,16.1066636 C19.1161444,16.6688724 18.8418029,17.1547471 18.493335,17.6003759 C17.9706331,18.2688028 17.317384,18.7805012 16.589784,19.1986172 C15.4296784,19.86529 14.1763614,20.2350719 12.8550123,20.3760789 C12.4402123,20.4203527 12.0227501,20.43929 11.6064746,20.4697912 L11.6064746,20.4697912 Z M10.8617142,19.4860557 C11.3303689,19.4778051 11.8130727,19.4369745 12.2911897,19.344464 C13.1663689,19.1751323 13.9899387,18.8720371 14.7364953,18.3728121 C15.271418,18.0151137 15.735101,17.582413 16.0511085,17.0096148 C16.526884,16.1472343 16.528167,15.2889466 15.993501,14.4497912 C15.7369293,14.0471369 15.3876916,13.7366357 14.990084,13.4819397 C14.1945802,12.9724176 13.3129859,12.7314617 12.385684,12.6423619 C11.8984255,12.5955545 11.4108784,12.6044223 10.923235,12.6551276 C10.3182274,12.7180789 9.72819911,12.8459629 9.15642176,13.0545986 C8.33458402,13.354478 7.58783496,13.7801299 6.98523308,14.4330626 C6.52299345,14.9339118 6.20791609,15.5101531 6.16644251,16.2099582 C6.13504062,16.7400418 6.28358213,17.2228306 6.57636704,17.6602088 C6.95267647,18.2223527 7.47518591,18.6061671 8.07185383,18.8934107 C8.94850855,19.3153921 9.88129534,19.4746543 10.8617142,19.4860557 L10.8617142,19.4860557 Z"/>
		<path stroke="none" fill="#FFFFFF" d="M16.969718,7.78026914 C16.7284142,7.81284919 16.486084,7.83925754 16.2460312,7.87956845 C15.9121897,7.93560093 15.5624387,7.66040835 15.5400501,7.31502088 C15.5160576,6.94488167 15.7145406,6.68346172 16.0743312,6.61225986 C16.3774765,6.5522645 16.6825463,6.50441763 16.992235,6.50932251 C17.4204746,6.51614385 17.8403746,6.58559165 18.2512614,6.70662181 C18.8467425,6.88199536 19.3835255,7.17310441 19.8572482,7.57663573 C20.4373331,8.07076102 20.8707368,8.6759768 21.1476765,9.39231555 C21.3345802,9.87585151 21.435201,10.3764408 21.4540614,10.8973968 C21.4733708,11.4300789 21.3992123,11.9465847 21.2478482,12.4540603 C21.1482859,12.787884 20.8079972,12.9746265 20.4713652,12.8833179 C20.1445482,12.7947053 19.9523199,12.457471 20.0286916,12.1166636 C20.0818727,11.8792807 20.1385821,11.6417355 20.1728387,11.4012019 C20.2197652,11.0717633 20.1993652,10.7413179 20.1326161,10.4149977 C19.9994387,9.76391647 19.6998538,9.20222738 19.231135,8.73766125 C18.7261387,8.23710441 18.1222538,7.93238515 17.4199935,7.83344316 C17.3444557,7.82282135 17.268918,7.81012065 17.1929633,7.80505336 C17.1196387,7.80021346 17.045801,7.80401392 16.9721557,7.80401392 C16.9713538,7.79608817 16.9705519,7.7881949 16.969718,7.78026914"/>
		<path stroke="none" fill="#FFFFFF" d="M16.9745935,8.85680742 C17.6297029,8.86590255 18.1758519,9.11676566 18.607267,9.6067007 C18.9184953,9.96011137 19.0933387,10.3800789 19.1373142,10.8573132 C19.1646425,11.1537494 19.1312519,11.4394988 19.0474067,11.721058 C18.9644595,11.9996288 18.7491048,12.1398561 18.4537859,12.1155916 C18.2172293,12.0961995 18.0307104,11.9119907 17.9978972,11.6456009 C17.9867029,11.5546821 17.9972878,11.4545383 18.0235255,11.366413 C18.214984,10.72342 17.7636501,10.0627564 17.1368633,9.97261717 C17.0143029,9.95497912 16.8841085,9.96056613 16.7615161,9.98080278 C16.427418,10.0359582 16.1654576,9.86542459 16.1003444,9.5357587 C16.0435067,9.24796288 16.2361199,8.96075174 16.529001,8.90913689 C16.676067,8.88321578 16.8259557,8.87373086 16.9745935,8.85680742"/>
	</g>
	</symbol>

	<symbol id="yikyak" viewBox="-1 -1 28 36">
	<g>
		<path d="M13,34 C13,34 25.9971964,24.4769584 26,13 C26,5.82029825 20.1797017,0 13,0 C5.82029825,0 0,5.82029825 0,13 C0.165217837,25.3733136 13,34 13,34 Z"/>
		<path stroke="none" fill="#FFFFFF" d="M18,9 C17.9766505,9.31149385 17.8989563,9.61304745 17.8245146,9.9137891 C17.2748786,12.1343515 16.3987621,14.2086643 15.108034,16.09458 C14.780267,16.5734587 14.4197816,17.0266503 14.018568,17.4448541 C13.9515534,17.5146819 13.9228155,17.5829104 13.9229854,17.6812056 C13.9258981,19.4034517 13.9237864,21.1256977 13.9278883,22.8479438 C13.9281796,22.9670791 13.8986893,22.9972935 13.7816262,22.995768 C13.2517961,22.9889279 12.7218204,22.9896907 12.191966,22.9953497 C12.0831068,22.9965062 12.0511165,22.9703761 12.0513835,22.8553251 C12.0553398,21.141297 12.0532039,19.4272443 12.0561165,17.7131916 C12.0563107,17.5965413 12.0284223,17.5055782 11.9559466,17.4122531 C11.0439806,16.238123 10.3093932,14.9534938 9.67257282,13.6096661 C9.02973301,12.2531424 8.48725728,10.8570791 8.09140777,9.40486819 C8.05507282,9.27156063 8.00730583,9.14029525 8,9 L10.1601942,9 C10.1626699,9.03643937 10.1610437,9.07373989 10.1681796,9.10919508 C10.4650971,10.5802777 10.9401942,11.9896766 11.6056068,13.3312654 C11.9624029,14.0506046 12.3792233,14.7313884 12.9139806,15.3327733 C12.9821359,15.4094165 13.0162379,15.400239 13.0775485,15.3287873 C13.4960922,14.8410018 13.8423301,14.3038102 14.1445388,13.7364042 C14.803835,12.4985975 15.2754612,11.1862882 15.6442718,9.83382425 C15.7193204,9.55854833 15.8027184,9.28469947 15.8398058,9 L18,9"/>
	</g>
	</symbol>

	<symbol id="youtube" viewBox="-1 -1 28 36">
	<g>
		<path d="M13,34 C13,34 25.9971964,24.4769584 26,13 C26,5.82029825 20.1797017,0 13,0 C5.82029825,0 0,5.82029825 0,13 C0.165217837,25.3733136 13,34 13,34 Z"/>
		<path stroke="none" fill="#FFFFFF" d="M13,9 C6,9 6,9 6,13.9560547 C6,18.9121094 6,18.9121094 13,18.9121094 C20,18.9121094 20,18.9121094 20,13.9560547 C20,9 20,9 13,9 L13,9 Z M11.25,16.5810547 L11.25,11.3310547 L15.625,13.9560547 L11.25,16.5810547 Z"/>
	</g>
	</symbol>
</svg>